<svg width="40" height="40" viewBox="0 0 40 40" fill="none" xmlns="http://www.w3.org/2000/svg">
<path opacity="0.2" d="M36.6673 17.9333C36.6673 17.15 36.034 16.5 35.234 16.5H4.76732C3.96732 16.5 3.33398 17.1333 3.33398 17.9333C3.33398 27.75 10.184 34.6 20.0007 34.6C29.8173 34.6 36.6673 27.7333 36.6673 17.9333Z" fill="#DD2C00"/>
<path d="M20.7671 26.4999L25.5171 21.7666C26.0004 21.2832 26.0004 20.4832 25.5171 19.9999C25.0337 19.5166 24.2337 19.5166 23.7504 19.9999L21.1504 22.5999V6.6499C21.1504 5.96657 20.5837 5.3999 19.9004 5.3999C19.2171 5.3999 18.6504 5.96657 18.6504 6.6499V22.5999L16.0337 19.9999C15.5504 19.5166 14.7504 19.5166 14.2671 19.9999C14.0171 20.2499 13.9004 20.5666 13.9004 20.8832C13.9004 21.1999 14.0171 21.5166 14.2671 21.7666L19.0171 26.4999C19.5004 26.9999 20.2837 26.9999 20.7671 26.4999Z" fill="#DD2C00"/>
</svg>
