<svg width="609" height="72" viewBox="0 0 609 72" fill="none" xmlns="http://www.w3.org/2000/svg">
<g clip-path="url(#clip0_5339_78671)">
<path d="M608.5 -268.125H0.5V339.875H608.5V-268.125Z" fill="#E0E0E0" fill-opacity="0.4"/>
<path d="M408.104 339.875C403.057 338.005 397.555 337.671 392.311 337.048C371.107 334.54 350.192 328.764 328.623 330.329C315.916 331.241 303.284 333.278 290.577 334.312C284.938 334.768 281.822 330.892 279.724 325.906C277.566 320.799 275.894 313.883 268.613 315.099C259.417 316.649 256.818 324.325 255.891 332.609C255.754 333.81 255.526 334.996 255.344 336.181C254.31 335.482 253.155 334.92 252.273 334.053C238.608 320.601 239.809 302.012 258.612 294.017C287.096 281.917 302.828 259.178 318.515 235.117C324.853 225.389 333.608 217.241 346.27 223.276C359.327 229.523 356.895 242.428 354.493 253.037C348.048 281.416 356.044 309.612 374.208 317.333C390.593 324.295 408.438 325.298 425.462 329.661C433.594 331.743 441.316 334.722 447.943 339.86H479.954C470.576 334.768 461.258 329.569 451.667 324.933C436.087 317.409 418.987 315.251 402.297 311.497C376.944 305.797 365.407 280.093 370.453 251.821C377.096 214.688 403.528 194.624 430.417 174.013C453.962 155.955 474.968 136.028 474.543 103.12C474.284 82.3718 465.21 65.1654 450.876 50.7406C429.292 29.0046 432.044 5.1254 443.033 -20.3194C453.977 -45.6426 462.048 -71.4674 452.047 -99.481C448.08 -110.607 439.051 -116.095 430.417 -122.433C415.4 -133.483 414.974 -144.108 431.42 -152.833C451.591 -163.519 460.802 -179.479 464.891 -201.275C469.998 -228.468 492.768 -237.117 519.352 -224.319C538.048 -215.32 553.172 -200.379 572.72 -192.946C584.758 -188.371 596.675 -188.431 608.485 -192.946V-210.684C573.328 -193.873 548.764 -215.609 523.852 -235.901C508.743 -248.213 492.312 -253.7 472.521 -249.338C465.848 -247.863 453.825 -245.751 453.764 -256.725C453.688 -267.623 464.07 -266.848 472.172 -268.125H429.292C430.417 -249.551 438.792 -232.633 441.787 -214.484C445.952 -189.283 433.062 -172.35 414.761 -158.047C408.529 -153.183 402.176 -148.349 395.396 -144.336C388.176 -140.065 378.707 -135.262 373.645 -145.172C368.432 -155.387 378.768 -159.886 385.927 -163.762C399.744 -171.225 416.996 -173.87 421.525 -192.976C426.085 -212.235 419.032 -229.912 415.354 -248.107C414.016 -254.719 413.15 -261.422 412.132 -268.11H395.716C398.011 -261.148 400.336 -254.217 402.54 -247.225C408.347 -228.727 416.16 -209.803 400.792 -192.383C390.502 -180.725 375.424 -173.976 366.304 -161.011C353.809 -143.257 340.813 -126.37 319.685 -117.934C314.791 -115.988 307.829 -114.012 308.224 -107.552C308.65 -100.545 315.642 -97.6418 321.205 -94.6018C338.336 -85.2082 357.792 -88.0658 376.001 -84.3418C385.334 -82.4418 395.016 -79.9946 398.436 -69.6586C401.036 -61.785 396.08 -55.325 390.168 -51.3122C378.494 -43.393 366.349 -36.0514 353.87 -29.4546C323.713 -13.5402 296.961 5.9158 281.944 37.8206C277.916 46.363 274.693 55.787 280.104 64.9678C283.068 69.999 288.571 71.9142 294.408 71.139C305.124 69.7102 313.772 63.5998 322.604 57.9606C340.92 46.287 358.764 32.2574 381.124 30.9198C404.988 29.491 422.711 46.1502 441.756 57.4894C457.884 67.0958 467.688 82.0222 464.632 101.645C458.993 137.806 436.497 162.613 407.146 181.917C397.859 188.027 387.143 193.651 375.94 187.723C365.62 182.266 367.079 171.353 369.07 162.217C373.341 142.67 366.136 131.042 349.249 120.402C327.574 106.722 327.164 95.2462 344.796 79.7878C357.579 68.5854 372.46 56.8966 390.137 60.0126C417.254 64.7854 431.344 85.9134 431.709 115.265C431.755 119.049 430.919 124.096 435.859 125.768C437.424 126.3 440.464 124.825 441.772 123.336C446.94 117.393 448.976 110.066 449.508 102.314C450.968 80.6998 435.889 70.987 420.005 62.5662C407.572 55.9694 396.293 44.6606 380.774 47.2142C360.269 50.6038 346.24 67.111 328 75.4254C312.1 82.6758 309.82 92.6926 320.871 106.327C325.856 112.468 332.012 117.97 338.518 122.515C363.75 140.193 366.714 152.55 350.116 175.168C341.512 186.887 330.371 197.375 324.519 210.31C311.097 239.95 292.538 261.793 260.679 273.329C226.661 285.657 216.933 316.938 237.012 339.89H408.119L408.104 339.875ZM309.471 51.075C305.017 55.4678 297.463 61.6846 292.553 55.2702C285.5 46.059 294.848 38.5654 300.548 32.4246C324.792 6.29581 355.603 -11.4122 384.27 -31.8866C395.594 -39.9882 406.143 -49.7466 409.487 -64.0042C412.557 -77.0762 401.811 -81.317 392.843 -86.2266C390.168 -87.6858 385.623 -88.1266 386.094 -91.7442C386.261 -93.0514 391.885 -94.4042 395.047 -94.4498C412.238 -94.7082 423.228 -84.3418 423.228 -63.4874C421.708 -43.4082 405.854 -27.2506 387.264 -14.4978C359.068 4.83658 333.715 27.1806 309.486 51.075H309.471ZM357.336 26.679C356.469 26.9526 355.542 27.0134 354.645 27.1654C354.964 26.2078 355.101 25.1286 355.633 24.3078C367.124 7.01019 386.094 -1.18262 401.978 -12.9778C425.72 -30.6098 439.902 -64.3842 429.779 -84.3266C422.194 -99.2682 409.396 -105.455 390.715 -105.424C381.291 -105.531 370.316 -101.624 359.175 -98.4474C354.448 -97.0946 348.094 -94.2674 345.449 -99.785C342.865 -105.166 348.824 -108.388 353.034 -110.623C385.927 -128.148 436.3 -123.497 446.666 -80.7546C452.822 -55.3402 441.3 -34.0754 425.888 -15.197C408.088 6.59979 383.708 18.4406 357.366 26.6638L357.336 26.679Z" fill="#EEEEEE"/>
<path d="M377.916 -268.125H365.558C373.295 -258.747 379.299 -248.578 380.865 -236.038C382.81 -220.412 379.421 -206.003 368.081 -195.363C347.926 -176.484 335.189 -150.918 312.617 -134.426C295.729 -122.083 277.565 -125.291 260.465 -133.225C240.143 -142.649 220.9 -140.916 201.383 -131.918C200.167 -131.355 198.753 -131.219 197.431 -130.899C197.781 -132.267 197.948 -133.711 198.525 -134.988C205.32 -150.097 231.965 -156.025 252.318 -147.285C272.717 -138.53 293.115 -127.13 314.608 -144.853C329.261 -156.952 337.818 -173.855 349.188 -188.538C357.837 -199.695 369.86 -209.103 370.483 -224.577C371.319 -245.143 360.299 -258.503 343.929 -268.125H261.712C269.479 -265.45 277.216 -262.668 285.105 -260.419C300.046 -256.163 314.897 -262.805 329.823 -261.452C344.4 -260.145 355.192 -252.378 362.184 -239.762C366.485 -232.01 366.349 -223.969 361.135 -216.308C359.083 -213.299 356.408 -211.444 352.927 -211.976C348.762 -212.599 347.06 -216.08 346.148 -219.774C339.977 -244.854 332.772 -250.128 307.889 -243.243C291.641 -238.743 279.602 -247.225 266.5 -252.545C238.045 -264.127 209.925 -245.979 209.804 -215.427C209.773 -208.055 209.287 -200.667 208.603 -193.326C208.117 -188.203 207.129 -182.336 200.106 -183.324C193.692 -184.236 191.321 -190.164 191.518 -195.515C192.613 -225.139 198.297 -259.567 233.06 -268.125H207.235C189.284 -245.416 181.608 -219.363 184.42 -190.544C185.469 -179.767 191.412 -169.69 204.119 -171.559C217.89 -173.581 216.081 -186.744 217.525 -196.639C220.17 -214.56 217.617 -234.807 237.878 -244.839C251.254 -251.466 264.037 -246.921 274.89 -238.591C284.253 -231.417 293.267 -228.742 305.412 -230.019C332.24 -232.831 341.861 -219.5 335.356 -191.274C329.413 -165.495 308.497 -143.333 290.029 -143.728C276.243 -144.017 266.135 -153.715 254.112 -158.533C230.658 -167.911 211.765 -157.758 193.996 -143.637C166.985 -122.19 138.06 -104.907 102.674 -101.822C99.3909 -101.533 95.4845 -102.019 94.7397 -105.652C93.9037 -109.726 97.9621 -110.851 100.957 -111.915C117.464 -117.751 134.746 -121.399 150.159 -130.215C173.248 -143.424 175.817 -163.564 171.925 -187.641C167.335 -216.05 173.78 -243.075 188.053 -268.125H174.479C163.535 -240.826 165.161 -211.885 163.793 -183.294C163.003 -166.65 159.401 -150.675 147.317 -138.256C122.297 -112.583 84.7077 -113.663 56.9221 -140.08C53.1373 -143.667 48.1669 -150.933 42.6189 -146.282C37.0101 -141.585 42.6189 -135.611 46.0237 -130.899C48.3493 -127.677 50.6597 -124.394 53.3501 -121.491C67.6685 -106.078 80.4821 -88.005 105.395 -90.4218C120.519 -91.881 132.329 -101.259 145.371 -107.583C173.613 -121.293 202.097 -103.6 202.097 -72.121C202.097 -40.6418 162.213 -5.74261 122.024 -14.1482C94.2077 -19.9698 69.5685 -34.2426 41.9501 -40.0186C26.4005 -43.2714 7.68932 -32.6466 3.81332 -17.1122C0.575725 -4.10101 9.61973 6.91898 26.2789 11.4182C49.9149 17.8022 71.9397 26.755 87.5045 47.4726C103.86 69.2542 109.712 69.999 132.831 53.9022C152.044 40.5262 171.789 34.4462 194.953 42.8974C216.142 50.6342 224.943 44.9494 225.141 22.4382C225.399 -6.457 238.714 -25.0162 265.086 -35.2458C287.765 -44.0466 299.651 -65.4634 293.951 -88.6434C290.911 -101.001 281.001 -105.85 269.433 -103.205C259.113 -100.849 262.897 -91.6074 264.341 -84.8434C268.278 -66.4666 266.895 -50.0506 250.023 -38.1338C239.353 -30.5946 229.26 -22.4474 224.183 -9.72501C220.322 -0.0274048 216.218 9.62457 208.892 17.2854C192.734 34.1878 170.907 31.3454 150.63 33.3822C107.417 37.7294 71.6965 17.2854 35.8701 -2.3378C28.8933 -6.15302 20.5485 -11.625 26.1421 -20.8514C31.4469 -29.5914 40.6733 -26.6578 47.9389 -22.2954C72.1373 -7.76419 95.6365 7.52701 124.258 13.1206C148.715 17.8934 173.476 11.859 184.83 -3.62982C206.673 -33.437 212.342 -67.1658 211.157 -103.083C210.427 -125.108 223.089 -135.049 243.989 -128.042C277.459 -116.824 307.965 -117.599 333.273 -145.583C346.376 -160.068 356.605 -177.183 372.611 -188.994C386.61 -199.315 393.116 -212.478 390.395 -230.155C388.328 -243.592 382.749 -255.722 377.855 -268.125H377.916Z" fill="#EEEEEE"/>
<path d="M420.536 291.098C449.644 301.145 473.736 320.571 501.324 333.354C506.234 335.634 511.219 337.762 516.205 339.89H536.77C535.706 339.738 534.673 339.541 533.67 339.343C508.848 334.464 489.164 320.951 471.836 302.848C444.02 273.816 450.054 210.097 482.917 187.145C501.172 174.393 518.91 160.865 536.314 146.987C541.452 142.898 546.21 134.675 540.19 129.613C533.943 124.369 531.329 133.611 527.605 137.411C520.826 144.342 514.654 152.231 506.842 157.733C476.67 178.968 449.477 202.148 442.014 241.029C440.691 247.9 437.697 255.029 428.972 252.703C422.208 250.894 421.813 244.009 423.044 238.065C429.732 205.568 451.331 183.695 475.91 163.859C489.924 152.55 506.963 143.871 513.666 125.585C519.199 110.507 511.341 95.839 510.642 80.867C510.064 68.4942 512.435 54.8142 504.379 44.3566C498.36 36.559 487.857 32.1662 482.126 24.2318C466.744 2.9518 472.003 -21.049 477.779 -43.773C484.148 -68.7922 489.818 -93.2034 483.829 -119.271C478.235 -143.622 478.57 -168.018 489.757 -191.198C491.702 -195.226 494.742 -198.98 499.819 -197.901C505.063 -196.791 505.747 -192.125 505.732 -187.55C505.641 -168.747 500.002 -150.416 501.932 -131.31C503.741 -113.374 515.718 -100.165 529.383 -103.418C553.11 -109.057 579.3 -96.6994 587.751 -74.0058C596.142 -51.4794 591.46 -26.8706 596.552 -3.6754C598.954 7.2686 600.565 18.5166 608.53 27.0134V-8.69141C604.122 -20.6994 603.058 -33.437 602.799 -45.977C601.994 -85.4362 584.118 -110.896 545.997 -122.889C521.601 -130.55 513.302 -146.966 514.822 -180.026C515.369 -191.775 519.23 -205.653 503.391 -208.921C488.754 -211.946 484.832 -198.342 480.5 -187.93C474.374 -173.216 465.087 -161.056 454.28 -149.459C443.306 -137.709 454.873 -129.151 460.953 -120.579C481.108 -92.1394 478.098 -61.2986 464.89 -32.9202C449.629 -0.149002 456.21 24.2014 479.907 49.3878C503.893 74.9086 506.902 114.885 488.754 139.311C474.587 158.372 452.502 169.285 435.979 186.112C416.31 206.145 393.146 224.477 389.543 254.77C386.974 276.415 403.451 285.216 420.566 291.129L420.536 291.098Z" fill="#EEEEEE"/>
<path d="M375.165 -65.6154C374.861 -67.181 371.943 -68.9594 369.967 -69.3546C353.338 -72.6226 336.04 -72.045 320.004 -78.9002C314.304 -81.3322 311.416 -77.1522 310.96 -72.045C308.741 -47.1778 297.721 -29.4242 273.036 -20.897C258.627 -15.9266 244.293 -8.67619 240.904 7.98302C238.532 19.6262 239.444 31.9838 239.216 44.0222C238.943 59.4046 230.917 66.731 216.097 63.8582C202.98 61.335 190.151 56.1822 176.988 55.3462C148.7 53.5222 131.464 72.7047 115.671 92.3582C108.192 101.661 109.469 112.133 118.954 120.265C125.216 125.631 131.92 123.67 137.863 119.429C144.961 114.353 150.965 107.026 158.748 103.728C199.134 86.5822 238.365 94.7902 274.389 115.265C306.476 133.489 313.468 158.296 298.861 182.768C285.333 205.416 262.077 211.952 239.308 219.597C208.862 229.812 182.156 244.085 173.917 279.212C169.479 298.166 159.933 314.111 138.775 317.409C119.653 320.389 107.539 307.712 95.5612 295.202C85.438 284.638 76.0444 272.721 61.726 267.477C36.722 258.312 18.1628 270.821 0.515625 285.809V307.636C5.74443 299.99 10.5628 292.01 18.4516 286.569C41.7988 270.457 61.7564 274.272 79.3884 297.148C91.3356 312.667 104.18 327.502 119.516 339.86H176.896C168.4 304.094 184.405 276.476 208.786 252.384C224.351 237.001 245.95 231.347 264.813 221.269C289.832 207.909 310.93 190.748 316.524 160.849C320.612 138.931 305.078 128.261 290.319 117.195C279.633 109.185 265.999 103.621 263.643 88.0414C263.263 85.5638 264.616 82.8278 265.163 80.2134C266.394 80.8062 267.944 81.1102 268.796 82.0374C270.741 84.1806 272.231 86.719 274.07 88.9686C285.713 103.089 300.624 113.532 314.684 124.917C333.912 140.497 333.32 159.314 317.968 186.385C297.858 221.801 264.418 239.418 231.039 257.689C206.506 271.125 183.66 309.019 197.158 339.845H216.204C199.043 304.109 218.134 266.489 253.398 254.512C268.917 249.237 286.002 246.608 296.627 231.803C309 214.581 315.672 193.803 330.553 178.056C337.591 170.608 345.115 162.643 343.899 151.197C342.288 136.089 329.048 129.963 319.214 121.421C301.02 105.613 278.904 92.5254 271.273 68.251C260.983 35.5558 278.402 10.5822 298.983 -12.2482C318.439 -33.817 345.905 -43.1042 369.997 -57.5746C372.931 -59.3378 375.956 -61.8914 375.211 -65.661L375.165 -65.6154ZM276.304 5.47502C266.348 23.487 262.837 43.1102 259.828 63.1894C256.271 86.9926 238.593 98.0886 215.14 88.467C184.056 75.699 158.2 79.2254 135.096 103.667C132.482 106.433 127.04 110.477 124.776 106.464C120.869 99.5478 126.934 93.6806 131.251 88.6798C153.306 63.2046 179.268 59.0094 210.124 72.2334C221.98 77.3102 238.517 84.3934 245.752 64.8462C249.446 54.8598 249.081 43.3534 250.54 32.5462C251.164 19.611 250.358 6.03741 260.785 -3.94898C265.208 -8.17458 271.152 -12.2786 276.852 -8.60018C282.445 -4.98258 278.721 1.05181 276.274 5.49021L276.304 5.47502Z" fill="#EEEEEE"/>
<path d="M285.44 159.345C281.366 155.408 276.046 165.987 271.805 170.532C262.655 180.321 252.076 185.975 238.867 180.503C226.494 175.381 214.471 172.356 201.353 177.417C174.358 187.845 151.224 206.586 121.599 211.83C96.2604 216.314 67.1828 202.376 59.3092 177.904C53.1228 158.706 58.1692 138.232 53.3508 118.776C45.6596 87.6766 31.2044 61.8518 0.515625 48.4758V62.9158C23.726 74.3006 34.2596 95.4135 40.0964 118.882C47.9852 150.62 52.53 183.209 42.2396 215.144C35.9164 234.737 19.3028 244.905 0.515625 251.32V263.769C43.638 231.575 77.6252 242.154 109.576 278.969C126.448 298.409 144.019 298.485 153.488 274.621C167.655 238.932 189.604 213.001 227.528 202.133C245.676 196.934 266.09 196.6 279.846 180.761C285.242 174.56 291.945 165.561 285.455 159.314L285.44 159.345ZM216.964 195.201C192.036 208.304 172.671 229.265 148.564 243.446C139.96 248.508 130.476 251.001 119.228 251.061C103.009 250.438 87.3988 244.237 73.0956 234.63C70.0404 232.578 65.7996 229.493 68.2772 224.811C71.5452 218.609 77.61 219.309 82.778 221.421C121.264 237.214 151.482 218.989 181.426 198.272C191.519 191.28 201.976 184.257 215.383 185.367C218.225 185.595 220.809 186.902 220.794 189.197C220.779 191.249 218.864 194.213 216.964 195.201Z" fill="#EEEEEE"/>
<path d="M258.049 123.761C228.971 111.358 198.237 115.827 168.004 118.183C161.848 118.654 155.388 124.354 156.589 131.787C157.394 136.697 164.037 135.952 167.943 134.994C189.831 129.689 211.871 126.391 234.337 129.933C240.994 130.981 251.239 130.206 251.224 139.691C251.194 149.556 241.481 148.811 234.519 148.203C213.908 146.379 193.601 144.129 173.202 151.197C130.43 166.017 105.289 155.073 94.664 111.069C82.1088 59.1006 50.3104 32.0294 0.5 22.3926V30.6766C0.8344 30.7374 1.1688 30.7982 1.5032 30.9046C43.4856 44.2806 77.0168 93.8782 79.1448 144.829C79.8288 161.123 82.884 177.402 98.5856 186.385C116.537 196.661 133.363 188.893 148.502 179.272C176.577 161.442 203.815 144.54 239.535 159.132C249.218 163.084 261.712 158.509 266.941 147.2C271.44 137.457 267.047 127.622 258.049 123.777V123.761Z" fill="#EEEEEE"/>
<path d="M608.5 50.543C604.609 46.3022 600.49 42.2134 597.45 37.4254C581.414 12.2694 580.943 -16.7626 578.1 -45.065C575.516 -70.829 553.963 -88.7194 529.004 -85.0258C507.8 -81.8794 492.129 -60.8122 491.217 -35.5498C490.64 -19.4226 487.189 -3.05216 497.404 11.4638C502.906 19.2766 514.564 19.4894 519.383 28.199C526.39 40.8454 522.028 54.6926 522.924 67.9774C524.095 85.3966 528.868 100.946 544.098 111.191C566.564 126.3 581.581 124.278 608.47 102.421V50.5278L608.5 50.543ZM582.812 111.966C566.396 116.405 553.75 109.124 544.052 96.3863C535.419 85.0471 533.96 71.4886 533.838 57.7327C533.777 42.1526 538.383 25.1134 523.806 13.3638C515.522 6.67584 503.575 5.23184 499.866 -7.68816C492.312 -33.9538 506.402 -65.7066 529.552 -72.0906C547.685 -77.0914 564.466 -62.4386 570.333 -37.1914C576.459 -10.865 573.616 17.4678 587.692 41.955C594.471 53.7502 603.788 64.4358 604.244 78.8758C604.746 94.6534 599.38 107.497 582.828 111.981L582.812 111.966Z" fill="#EEEEEE"/>
<path d="M549.904 53.507C550.315 34.583 553.355 15.1118 538.398 -0.54422C531.755 -7.49062 519.945 -8.17463 515.978 -18.009C510.931 -30.5186 519.93 -47.3602 534.537 -49.7314C550.649 -52.3458 552.017 -37.3282 555.057 -27.053C562.839 -0.711422 560.195 28.1534 573.859 53.1422C578.754 62.1102 585.807 70.0902 587.448 80.5174C588.391 86.5062 586.582 92.3582 580.137 94.3646C568.631 97.9366 561.608 91.1118 555.939 82.4022C550.208 73.6014 549.387 63.6606 549.919 53.507H549.904Z" fill="#EEEEEE"/>
</g>
<defs>
<clipPath id="clip0_5339_78671">
<rect width="608" height="608" fill="white" transform="translate(0.5 -268.125)"/>
</clipPath>
</defs>
</svg>
