<svg width="258" height="247" viewBox="0 0 258 247" fill="none" xmlns="http://www.w3.org/2000/svg">
<path d="M27.1783 75.2474C27.1783 75.2474 27.0904 46.4597 26.6494 46.0167C25.4931 44.8538 24.216 44.2514 22.9599 44.3111C21.7958 44.3544 20.6762 44.9339 19.8054 45.9439C16.8489 49.3734 11.3542 51.1965 5.74125 47.5339C4.88748 46.9761 4.15247 46.2129 3.61763 45.3257C1.27678 41.4472 1.0412 37.1304 2.97122 33.483C4.8015 30.0232 8.2921 27.874 12.08 27.874C15.2254 27.874 18.1673 29.3381 20.1512 31.8903C20.373 32.1751 20.606 32.3838 20.8442 32.5098C22.368 33.3189 23.9988 33.2973 25.3185 32.452C26.5864 31.6402 27.3424 30.2319 27.3424 28.6851L27.3463 1.52295H58.2019C59.4291 1.52295 60.6215 2.04992 61.4733 2.96867C63.0319 4.64932 63.8194 6.57936 63.7518 8.55073C63.6888 10.4151 62.8639 12.1798 61.4293 13.5212C58.847 15.9362 57.5003 20.4669 60.3124 25.1453C60.6661 25.7327 61.1504 26.2393 61.7122 26.6068C64.7178 28.5762 68.0227 28.7915 70.7783 27.2033C73.3626 25.711 74.9684 22.8754 74.9684 19.8021C74.9684 17.246 73.8712 14.854 71.9582 13.239C71.4345 12.7973 71.0335 12.2953 70.7658 11.7473C69.6246 9.40976 69.6758 6.86942 70.9056 4.77533C72.1013 2.73898 74.1816 1.52295 76.4699 1.52295H106.359L106.504 74.7145L27.1783 75.2474Z" stroke="#FF6E40" stroke-opacity="0.75" stroke-width="2.625"/>
<path d="M224.346 97.1833H200.276C195.848 97.1833 192.236 93.4236 192.226 88.8036L194.504 88.7977C194.512 92.1105 197.101 94.805 200.276 94.805H224.346C227.238 94.805 229.59 92.35 229.59 89.3326V81.1288C229.59 78.1324 230.75 75.2554 232.773 73.2374C238.754 67.2708 242.047 59.2507 242.047 50.6539C242.047 41.9218 238.687 33.8178 232.586 27.836C226.488 21.8576 218.51 18.8631 210.12 19.4111C202.93 19.879 196.113 23.1038 190.925 28.4929L189.316 26.807C194.897 21.011 202.235 17.5408 209.978 17.0381C219.003 16.4488 227.585 19.671 234.145 26.1022C240.615 32.4455 244.327 41.3942 244.327 50.6539C244.327 59.9063 240.783 68.5373 234.348 74.9561C232.773 76.5278 231.87 78.7781 231.87 81.1288V89.3326C231.87 93.6618 228.495 97.1833 224.346 97.1833Z" fill="#FF6E40" fill-opacity="0.5"/>
<path d="M222.839 63.0963H215.156V55.0795C215.156 50.8822 218.058 47.2931 221.906 46.732C224.403 46.3685 226.845 47.2157 228.611 49.0578C230.377 50.9005 231.189 53.4501 230.84 56.0541C230.301 60.0683 226.862 63.0963 222.839 63.0963ZM217.435 60.718H222.839C225.732 60.718 228.201 58.5714 228.582 55.724C228.832 53.8661 228.254 52.0496 226.999 50.7391C225.744 49.4292 224.001 48.8294 222.221 49.0873C219.493 49.485 217.435 52.0614 217.435 55.0795V60.718Z" fill="#FF6E40" fill-opacity="0.5"/>
<path d="M212.117 63.0956H204.434C200.411 63.0956 196.972 60.0683 196.433 56.054C196.084 53.45 196.897 50.8998 198.662 49.0571C200.427 47.2143 202.871 46.3645 205.367 46.7313C209.215 47.2924 212.117 50.8814 212.117 55.0788V63.0956ZM204.239 49.0275C202.749 49.0275 201.338 49.63 200.274 50.739C199.019 52.0496 198.442 53.8654 198.69 55.7233C199.072 58.5707 201.542 60.718 204.434 60.718H209.838V55.0788C209.838 52.0607 207.78 49.4849 205.051 49.0873C204.779 49.0472 204.507 49.0275 204.239 49.0275Z" fill="#FF6E40" fill-opacity="0.5"/>
<path d="M217.435 84.4993H215.156V61.5095H217.435V84.4993Z" fill="#FF6E40" fill-opacity="0.5"/>
<path d="M212.274 117.795H211.196C207.684 117.795 204.472 116.077 202.604 113.198C201.371 111.297 200.719 109.065 200.719 106.744V103.525H222.753V106.744C222.753 109.065 222.1 111.297 220.867 113.198C218.999 116.077 215.787 117.795 212.274 117.795ZM202.999 105.903V106.744C202.999 108.588 203.514 110.359 204.492 111.865C205.934 114.089 208.441 115.416 211.196 115.416H212.274C215.03 115.416 217.537 114.089 218.98 111.865C219.957 110.359 220.473 108.588 220.473 106.744V105.903H202.999Z" fill="#FF6E40" fill-opacity="0.5"/>
<path d="M173.361 44.7673V52.79H190.076V44.9143C190.076 39.094 185.14 34.4871 179.666 35.9526C175.887 36.9645 173.361 40.6966 173.361 44.7673Z" fill="#FF6E40" fill-opacity="0.7"/>
<path d="M174.886 68.6449H172.607V45.6552H174.886V68.6449Z" fill="#1E40AF"/>
<path d="M172.307 99.5354H175.189V68.4474H172.307V99.5354Z" fill="#1E40AF"/>
<path d="M187.721 35.7547C185.91 34.2887 183.7 33.6082 181.467 33.7643L82.4942 33.7657C79.8082 33.6561 77.2593 34.6352 75.3332 36.5593C73.415 38.4756 72.3164 41.1734 72.3164 43.9618V104.318H74.5949V43.9618C74.5949 41.787 75.4172 39.7684 76.9102 38.2774C78.3821 36.8067 80.3286 36.0409 82.4443 36.1426H175.966C173.889 38.0431 172.605 40.8807 172.605 44.0025V54.3758H174.884V44.0025C174.884 40.3492 177.125 37.1978 180.333 36.3395C180.715 36.2364 181.098 36.1787 181.478 36.1426H181.722V36.1216C183.37 36.0245 184.967 36.5363 186.323 37.6336C188.2 39.1528 189.321 41.5882 189.321 44.1482V51.2048H178.683V53.5831H191.599V44.1482C191.599 40.8591 190.15 37.7215 187.721 35.7547Z" fill="#1E40AF"/>
<path d="M90.4512 53.5305C90.4512 53.5305 131.64 53.6801 135.308 53.6939" stroke="#1E40AF" stroke-width="2.625" stroke-dasharray="6.56 6.56"/>
<path d="M94.3923 74.5309C94.3923 74.5309 108.83 92.7418 100.955 110.132C95.9608 121.161 86.6814 116.859 86.3533 107.507C86.1256 101.011 96.5199 81.7155 105.713 83.5543C120.478 86.5074 107.517 105.539 108.666 109.312C109.814 113.086 113.424 104.062 116.705 104.39C119.986 104.718 118.181 110.132 120.642 109.804C123.103 109.476 123.924 102.257 126.877 103.242C129.83 104.226 128.025 111.445 131.142 111.281C134.26 111.117 134.095 102.586 137.049 103.078C139.294 103.452 139.927 107.714 140.101 109.735" stroke="#1E40AF" stroke-width="2.625"/>
<path d="M176.836 22.5228C176.836 22.5228 185.641 1.46835 215.801 2.75329C249.657 4.19572 254.571 38.1632 255.116 43.2229" stroke="#1E40AF" stroke-width="2.625" stroke-dasharray="6.56 6.56"/>
<path d="M126.572 222.565L126.786 222.358L126.815 222.309L126.572 222.565Z" fill="#FF6E40" fill-opacity="0.7"/>
<path d="M167.653 194.516C167.44 194.152 167.189 193.829 166.879 193.505L162.889 189.362C162.472 188.925 162.003 188.582 161.515 188.284L142.533 168.478C145.167 171.227 145.167 175.693 142.533 178.442C141.443 179.578 140.061 180.241 138.63 180.431C136.642 180.694 135.161 182.239 134.91 184.313C134.729 185.81 134.093 187.259 133.003 188.405C131.904 189.543 130.516 190.206 129.081 190.395C127.093 190.657 125.613 192.202 125.36 194.277C125.179 195.77 124.543 197.211 123.454 198.348C122.356 199.494 120.972 200.162 119.541 200.353C117.586 200.613 116.054 202.102 115.838 204.147C115.828 204.242 115.816 204.337 115.803 204.431L116.771 212.414L117.003 212.637L117.643 211.97C118.959 210.596 120.703 209.909 122.427 209.909C123.725 209.909 125.023 210.292 126.146 211.06C126.165 211.08 126.204 211.101 126.223 211.121C126.572 211.364 126.882 211.647 127.191 211.97C127.482 212.273 127.734 212.597 127.967 212.94C129.123 214.674 129.436 216.846 128.915 218.823C128.935 218.8 130.426 216.436 130.426 216.436L131.057 216.022C131.088 216.055 131.113 216.091 131.144 216.122L135.115 220.265C135.424 220.568 135.734 220.851 136.083 221.074C138.698 222.953 142.339 222.69 144.664 220.265C145.981 218.891 146.62 217.093 146.62 215.273C146.62 213.942 146.255 212.633 145.533 211.479C148.134 213.238 151.672 212.952 153.951 210.575C155.268 209.2 155.907 207.402 155.907 205.583C155.907 204.189 155.52 202.814 154.725 201.622C154.567 201.353 154.378 201.108 154.171 200.867L154.578 200.599L157.329 203.469C157.639 203.772 157.949 204.055 158.298 204.277C160.913 206.156 164.554 205.894 166.879 203.469C168.196 202.094 168.835 200.296 168.835 198.478C168.835 197.082 168.448 195.709 167.653 194.516Z" fill="#FF6E40" fill-opacity="0.7"/>
<path d="M164.001 160.771C157.636 167.412 148.128 168.86 140.365 165.164L168.456 193.84C181.436 182.75 180.145 172.645 187.672 167.017L173.435 150.928L164.001 160.771Z" fill="#FF6E40" fill-opacity="0.7"/>
<path d="M168.432 195.657L167.031 193.873C174.087 187.845 176.215 182.662 178.093 178.088C179.626 174.354 180.95 171.13 184.516 168.464L185.803 170.339C182.74 172.629 181.586 175.439 180.125 178.997C178.245 183.576 175.906 189.272 168.432 195.657Z" fill="#1E40AF"/>
<path d="M92.5826 216.429C90.4794 216.429 88.508 215.58 87.0292 214.037C85.5511 212.495 84.7363 210.437 84.7363 208.243C84.7363 206.049 85.5511 203.991 87.0292 202.449L93.7271 195.459C95.2052 193.917 97.1786 193.068 99.2818 193.068C101.385 193.068 103.356 193.917 104.835 195.459C106.313 197.001 107.128 199.059 107.128 201.254C107.128 203.449 106.313 205.507 104.835 207.048L98.1372 214.037C96.6585 215.58 94.6858 216.429 92.5826 216.429ZM99.2818 195.374C97.7693 195.374 96.351 195.983 95.2905 197.09L88.592 204.079C86.392 206.375 86.392 210.111 88.592 212.407C89.6531 213.513 91.0701 214.122 92.5826 214.122C94.0951 214.122 95.5127 213.513 96.5732 212.407L103.272 205.417C104.333 204.31 104.917 202.832 104.917 201.254C104.917 199.676 104.333 198.197 103.272 197.09C102.212 195.983 100.794 195.374 99.2818 195.374Z" fill="#1E40AF"/>
<path d="M83.1783 206.472C81.0751 206.472 79.1024 205.622 77.6243 204.079C76.1462 202.537 75.332 200.48 75.332 198.284C75.332 196.09 76.1462 194.033 77.6249 192.491L78.6899 191.379C80.1686 189.836 82.1407 188.986 84.2439 188.986C86.3471 188.986 88.3185 189.836 89.7973 191.379C92.8591 194.574 92.8591 199.772 89.7973 202.967L88.7317 204.079C87.2536 205.622 85.2815 206.472 83.1783 206.472ZM84.2439 191.293C82.7314 191.293 81.3138 191.903 80.2533 193.01L79.1883 194.122C76.9877 196.417 76.9877 200.153 79.1877 202.448C80.2482 203.555 81.6658 204.165 83.1783 204.165C84.6908 204.165 86.1078 203.555 87.1683 202.448L88.2339 201.336C90.4338 199.041 90.4338 195.305 88.2339 193.01C87.1734 191.903 85.7564 191.293 84.2439 191.293Z" fill="#1E40AF"/>
<path d="M118.456 229.271C116.337 229.271 114.36 228.426 112.89 226.892C110.219 224.104 109.839 219.722 111.987 216.47C112.225 216.06 112.552 215.673 112.865 215.324L116.861 211.155C118.344 209.607 120.32 208.754 122.427 208.754C123.974 208.754 125.469 209.218 126.752 210.094L126.873 210.186C127.24 210.446 127.592 210.756 127.974 211.155C128.291 211.485 128.584 211.851 128.87 212.275C131.05 215.541 130.671 219.934 127.973 222.728L124.005 226.889C123.622 227.288 123.238 227.607 122.828 227.868C121.585 228.772 120.054 229.271 118.456 229.271ZM122.427 211.061C120.911 211.061 119.49 211.674 118.424 212.784L114.453 216.928C114.246 217.16 114.007 217.44 113.84 217.725C112.265 220.114 112.537 223.26 114.454 225.261C115.506 226.359 116.928 226.963 118.456 226.963C119.601 226.963 120.695 226.609 121.622 225.937C121.939 225.732 122.182 225.529 122.44 225.26L126.414 221.094C128.318 219.123 128.596 215.9 127.059 213.599C126.851 213.289 126.637 213.021 126.41 212.784C126.121 212.483 125.867 212.26 125.61 212.081L125.501 211.998C124.588 211.385 123.526 211.061 122.427 211.061Z" fill="#1E40AF"/>
<path d="M189.088 169.8L157.252 131.69L181.143 108.853L182.654 110.538L160.32 131.853L189.302 166.545L193.644 162.598L195.096 164.336L189.088 169.8Z" fill="#1E40AF"/>
<path d="M74.5452 192.593L73.9112 192.027C72.0773 190.393 72.0416 190.361 71.5604 189.841C71.4184 189.689 71.2306 189.484 70.92 189.16C66.7913 184.874 64.2628 180.194 62.5212 176.597C61.9012 175.323 61.3436 174.102 60.8044 172.92C59.7108 170.524 58.7661 168.456 57.6922 166.8L57.5974 166.623C57.57 166.559 57.4834 166.438 57.4141 166.342L59.1812 164.956C59.3021 165.123 59.4485 165.327 59.5701 165.58C60.7165 167.364 61.6835 169.481 62.8007 171.928C63.3341 173.097 63.8854 174.305 64.4939 175.554C66.1617 179 68.5755 183.471 72.4809 187.527C72.8074 187.867 73.0035 188.079 73.1512 188.239C73.5586 188.68 73.5586 188.68 75.3473 190.274L75.9813 190.838L74.5452 192.593Z" fill="#1E40AF"/>
<path d="M120.85 135.904C115.547 131.894 108.407 130.748 101.749 132.841C101.345 132.968 100.942 133.094 100.537 133.199C93.9128 135.206 88.7935 135.82 85.3586 135.012C85.0703 134.963 84.7902 134.891 84.5031 134.792C84.4165 134.765 84.3325 134.737 84.2383 134.688L84.7348 133.657L85.0582 132.557C85.0932 132.567 85.1568 132.583 85.2351 132.615C85.4064 132.672 85.5668 132.712 85.7361 132.738L85.8144 132.755C88.8355 133.477 93.7269 132.86 99.9607 130.973C100.371 130.864 100.742 130.748 101.113 130.632C108.426 128.334 116.289 129.607 122.147 134.036L120.85 135.904Z" fill="#1E40AF"/>
<path d="M149.366 213.321C147.354 213.321 145.343 212.521 143.812 210.924L137.113 203.935L138.676 202.304L145.375 209.293C147.576 211.589 151.156 211.588 153.356 209.293C155.556 206.997 155.556 203.262 153.356 200.966L140.891 187.96L142.454 186.329L154.919 199.334C157.981 202.53 157.981 207.729 154.919 210.924C153.388 212.521 151.377 213.321 149.366 213.321Z" fill="#1E40AF"/>
<path d="M162.094 206.824C159.991 206.824 158.019 205.974 156.54 204.432L140.887 187.956L142.456 186.333L158.106 202.806C159.164 203.909 160.581 204.517 162.094 204.517C163.606 204.517 165.024 203.909 166.084 202.802C168.284 200.506 168.284 196.77 166.084 194.475L165.018 193.363L166.582 191.731L167.648 192.844C170.71 196.039 170.71 201.237 167.648 204.432C166.169 205.974 164.197 206.824 162.094 206.824Z" fill="#1E40AF"/>
<path d="M139.612 223.056C137.509 223.056 135.537 222.207 134.058 220.665L126.643 212.928L128.206 211.297L135.621 219.034C136.682 220.141 138.099 220.75 139.612 220.75C141.124 220.75 142.541 220.141 143.602 219.034C145.802 216.738 145.802 213.003 143.602 210.707L131.073 197.634L132.637 196.004L145.165 209.076C146.643 210.618 147.458 212.675 147.458 214.871C147.458 217.065 146.643 219.122 145.165 220.665C143.687 222.207 141.715 223.056 139.612 223.056Z" fill="#1E40AF"/>
<path d="M56.0704 169.895L50.0625 164.43L51.5151 162.692L55.8565 166.64L84.8385 131.947L54.8316 102.588L56.3435 100.906L87.9061 131.786L56.0704 169.895Z" fill="#1E40AF"/>
<path d="M165.011 193.363L128.965 155.753C127.516 154.226 125.228 154.191 123.751 155.668C120.828 158.587 116.691 162.702 114.032 165.348C112.622 166.751 111.627 167.74 111.453 167.915C110.07 169.3 108.245 170.051 106.322 169.992C104.395 169.947 102.607 169.125 101.286 167.675L100.379 166.69C100.173 166.451 99.9637 166.21 99.7836 165.923C97.6466 162.922 97.9872 158.701 100.583 156.087L120.053 136.663C121.006 135.71 122.031 134.824 123.101 134.03C128.951 129.605 136.814 128.333 144.127 130.631C151.425 132.938 157.124 133.622 160.175 132.561L160.874 134.75C156.412 136.304 148.957 134.568 143.488 132.84C136.833 130.749 129.693 131.893 124.391 135.903C123.401 136.639 122.458 137.453 121.582 138.329L102.115 157.751C100.314 159.564 100.081 162.498 101.575 164.571L101.626 164.647C101.712 164.788 101.85 164.948 101.998 165.119L102.884 166.082C103.8 167.086 105.038 167.654 106.372 167.686C107.707 167.721 108.967 167.208 109.921 166.251C110.095 166.076 111.092 165.085 112.507 163.677C115.165 161.034 119.301 156.919 122.222 154.003C124.539 151.682 128.267 151.737 130.532 154.126L166.575 191.732L165.011 193.363Z" fill="#1E40AF"/>
<path d="M102.338 226.169C100.235 226.169 98.2625 225.32 96.7844 223.778C95.3064 222.236 94.4922 220.177 94.4922 217.983C94.4922 215.788 95.3064 213.731 96.7851 212.189L105.255 203.352C106.733 201.809 108.705 200.96 110.808 200.96C112.911 200.96 114.883 201.809 116.362 203.352C119.424 206.547 119.424 211.746 116.362 214.942L107.892 223.778C106.414 225.32 104.442 226.169 102.338 226.169ZM110.808 203.266C109.295 203.266 107.878 203.876 106.818 204.983L98.3478 213.819C97.2873 214.926 96.703 216.405 96.703 217.983C96.703 219.562 97.2873 221.04 98.3478 222.147C99.4084 223.254 100.826 223.862 102.338 223.862C103.851 223.862 105.268 223.254 106.328 222.147L114.799 213.31C116.998 211.015 116.998 207.279 114.799 204.983C113.738 203.876 112.32 203.266 110.808 203.266Z" fill="#1E40AF"/>
<path d="M28.2568 246.012H25.977V218.007C25.977 216.839 25.0661 215.889 23.9459 215.889H14.007C12.3368 215.889 10.8491 214.913 10.124 213.343C9.39946 211.773 9.59503 209.952 10.6358 208.589L35.5222 176.001C36.3444 174.924 37.5729 174.306 38.8927 174.306C40.213 174.306 41.4415 174.924 42.2638 176.001L67.1508 208.589C68.1916 209.952 68.3871 211.773 67.6627 213.343C66.9375 214.913 65.4491 215.889 63.779 215.889H53.8407C52.7212 215.889 51.8096 216.839 51.8096 218.007V231.743H49.5298V218.007C49.5298 215.528 51.4638 213.511 53.8407 213.511H63.779C64.5776 213.511 65.2621 213.062 65.6092 212.311C65.9557 211.56 65.8652 210.723 65.3671 210.07L40.4821 177.482C40.0949 176.976 39.5148 176.684 38.8927 176.684C38.2712 176.684 37.6917 176.976 37.3045 177.482L12.4189 210.07C11.9214 210.723 11.8309 211.56 12.1774 212.311C12.5245 213.062 13.2083 213.511 14.007 213.511H23.9459C26.3228 213.511 28.2568 215.528 28.2568 218.007V246.012Z" fill="#FF6E40" fill-opacity="0.75"/>
<path d="M51.8052 246.011H49.5254V238.877H51.8052V246.011Z" fill="#FF6E40" fill-opacity="0.75"/>
<path d="M20.7683 180.843H18.5935V128.107C18.5935 127.491 18.1151 126.991 17.5265 126.991H10.8097C9.55499 126.991 8.43543 126.256 7.89074 125.074C7.3454 123.891 7.49109 122.518 8.27202 121.491L25.1167 99.2996C25.7355 98.4852 26.6595 98.0166 27.6544 98.0166C28.6486 98.0166 29.5732 98.4852 30.1921 99.2996L47.0361 121.491C47.8163 122.518 47.962 123.892 47.4167 125.074C46.8713 126.256 45.7531 126.991 44.4983 126.991H37.781C37.193 126.991 36.7146 127.491 36.7146 128.107V157.33H34.5404V128.107C34.5404 126.237 35.994 124.715 37.781 124.715H44.4983C44.917 124.715 45.2767 124.48 45.4591 124.084C45.6415 123.69 45.5943 123.249 45.3337 122.907L28.4891 100.714C28.0822 100.178 27.2265 100.178 26.8196 100.714L9.97499 122.907C9.71446 123.249 9.66721 123.69 9.84965 124.084C10.0321 124.48 10.3911 124.715 10.8097 124.715H17.5265C19.3141 124.715 20.7683 126.237 20.7683 128.107V180.843Z" fill="#1E40AF"/>
<path d="M228.112 185.1L230.247 172.476L221.203 163.536L233.701 161.694L239.29 150.209L244.88 161.694L257.378 163.536L248.334 172.476L250.469 185.1L239.29 179.14L228.112 185.1ZM239.29 176.862L247.829 181.415L246.198 171.773L253.107 164.944L243.56 163.537L239.29 154.765L235.021 163.537L225.474 164.944L232.383 171.773L230.752 181.415L239.29 176.862Z" fill="#FF6E40" fill-opacity="0.5"/>
<path d="M200.425 233.85L202.834 219.191L192.627 208.81L206.733 206.671L213.041 193.334L219.35 206.671L233.455 208.81L223.248 219.191L225.658 233.85L213.041 226.929L200.425 233.85ZM213.041 224.284L222.678 229.571L220.837 218.374L228.634 210.445L217.86 208.811L213.041 198.624L208.222 208.811L197.448 210.445L205.245 218.374L203.404 229.571L213.041 224.284Z" fill="#1E40AF"/>
<path d="M224.429 98.5714L221.828 84.5243L160.535 96.6948L163.135 110.742L224.429 98.5714Z" fill="#FF6E40" fill-opacity="0.7"/>
<path d="M224.911 99.2679L162.147 110.936L161.943 110.896L143.521 107.359L159.195 95.3507L221.677 82.9378L223.885 81.6739L224.114 81.6498C228.524 81.1825 232.699 87.61 233.16 88.344L233.282 88.536L233.431 89.2858L233.389 89.5149C233.239 90.3429 231.81 97.6339 227.664 98.7185L224.911 99.2679ZM162.118 108.522L224.46 96.9332L227.136 96.4013C229.287 95.8359 230.672 91.3036 231.083 89.3545C229.966 87.6837 226.977 83.9737 224.588 84.0003L222.491 85.2008L160.16 97.5838L149.136 106.029L162.118 108.522Z" fill="#1E40AF"/>
<path d="M141.393 109.407L140.896 107.081L147.581 105.643L148.078 107.969L141.393 109.407Z" fill="#1E40AF"/>
<path d="M225.015 97.631L222.781 98.0753L219.998 84.0797L222.233 83.6354L225.015 97.631Z" fill="#1E40AF"/>
</svg>
