<svg width="1440" height="1024" viewBox="0 0 1440 1024" fill="none" xmlns="http://www.w3.org/2000/svg">
<g clip-path="url(#clip0_7777_3444)">
<line y1="31.5" x2="1440" y2="31.5" stroke="#EEEEEE"/>
<line y1="63.5" x2="1440" y2="63.5" stroke="#EEEEEE"/>
<line y1="95.5" x2="1440" y2="95.5" stroke="#EEEEEE"/>
<line y1="127.5" x2="1440" y2="127.5" stroke="#EEEEEE"/>
<line y1="159.5" x2="1440" y2="159.5" stroke="#EEEEEE"/>
<line y1="191.5" x2="1440" y2="191.5" stroke="#EEEEEE"/>
<line y1="223.5" x2="1440" y2="223.5" stroke="#EEEEEE"/>
<line y1="255.5" x2="1440" y2="255.5" stroke="#EEEEEE"/>
<line y1="287.5" x2="1440" y2="287.5" stroke="#EEEEEE"/>
<line y1="319.5" x2="1440" y2="319.5" stroke="#EEEEEE"/>
<line y1="351.5" x2="1440" y2="351.5" stroke="#EEEEEE"/>
<line y1="383.5" x2="1440" y2="383.5" stroke="#EEEEEE"/>
<line y1="415.5" x2="1440" y2="415.5" stroke="#EEEEEE"/>
<line y1="447.5" x2="1440" y2="447.5" stroke="#EEEEEE"/>
<line y1="479.5" x2="1440" y2="479.5" stroke="#EEEEEE"/>
<line y1="511.5" x2="1440" y2="511.5" stroke="#EEEEEE"/>
<line y1="543.5" x2="1440" y2="543.5" stroke="#EEEEEE"/>
<line y1="575.5" x2="1440" y2="575.5" stroke="#EEEEEE"/>
<line y1="607.5" x2="1440" y2="607.5" stroke="#EEEEEE"/>
<line y1="639.5" x2="1440" y2="639.5" stroke="#EEEEEE"/>
<line y1="671.5" x2="1440" y2="671.5" stroke="#EEEEEE"/>
<line y1="703.5" x2="1440" y2="703.5" stroke="#EEEEEE"/>
<line y1="735.5" x2="1440" y2="735.5" stroke="#EEEEEE"/>
<line y1="767.5" x2="1440" y2="767.5" stroke="#EEEEEE"/>
<line y1="799.5" x2="1440" y2="799.5" stroke="#EEEEEE"/>
<line y1="831.5" x2="1440" y2="831.5" stroke="#EEEEEE"/>
<line y1="863.5" x2="1440" y2="863.5" stroke="#EEEEEE"/>
<line y1="895.5" x2="1440" y2="895.5" stroke="#EEEEEE"/>
<line y1="927.5" x2="1440" y2="927.5" stroke="#EEEEEE"/>
<line y1="959.5" x2="1440" y2="959.5" stroke="#EEEEEE"/>
<line y1="991.5" x2="1440" y2="991.5" stroke="#EEEEEE"/>
<line y1="1023.5" x2="1440" y2="1023.5" stroke="#EEEEEE"/>
<rect width="1440" height="1024" transform="translate(0 -96)" fill="url(#paint0_radial_7777_3444)"/>
</g>
<defs>
<radialGradient id="paint0_radial_7777_3444" cx="0" cy="0" r="1" gradientUnits="userSpaceOnUse" gradientTransform="translate(720 512) rotate(90) scale(512 720)">
<stop offset="0.6" stop-color="white"/>
<stop offset="0.8" stop-color="white" stop-opacity="0.5"/>
<stop offset="1" stop-color="white" stop-opacity="0"/>
</radialGradient>
<clipPath id="clip0_7777_3444">
<rect width="1440" height="1024" fill="white"/>
</clipPath>
</defs>
</svg>
