<svg width="24" height="25" viewBox="0 0 24 25" fill="none" xmlns="http://www.w3.org/2000/svg">
<g clip-path="url(#clip0_24790_21126)">
<path d="M18.375 0.34375H5.625C2.5184 0.34375 0 2.86215 0 5.96875V18.7188C0 21.8254 2.5184 24.3438 5.625 24.3438H18.375C21.4816 24.3438 24 21.8254 24 18.7188V5.96875C24 2.86215 21.4816 0.34375 18.375 0.34375Z" fill="url(#paint0_radial_24790_21126)"/>
<path d="M18.375 0.34375H5.625C2.5184 0.34375 0 2.86215 0 5.96875V18.7188C0 21.8254 2.5184 24.3438 5.625 24.3438H18.375C21.4816 24.3438 24 21.8254 24 18.7188V5.96875C24 2.86215 21.4816 0.34375 18.375 0.34375Z" fill="url(#paint1_radial_24790_21126)"/>
<path d="M12.0008 2.96875C9.45478 2.96875 9.13519 2.97991 8.13525 3.02538C7.13719 3.07113 6.45591 3.22909 5.85984 3.46094C5.24316 3.70037 4.72013 4.02072 4.19906 4.54197C3.67753 5.06312 3.35719 5.58616 3.117 6.20256C2.8845 6.79881 2.72634 7.48037 2.68144 8.47797C2.63672 9.478 2.625 9.79769 2.625 12.3438C2.625 14.89 2.63625 15.2086 2.68163 16.2085C2.72756 17.2066 2.88553 17.8878 3.11719 18.4839C3.35681 19.1006 3.67716 19.6236 4.19841 20.1447C4.71938 20.6662 5.24241 20.9873 5.85862 21.2267C6.45516 21.4586 7.13653 21.6166 8.13441 21.6623C9.13444 21.7078 9.45375 21.7189 11.9997 21.7189C14.5461 21.7189 14.8646 21.7078 15.8646 21.6623C16.8626 21.6166 17.5447 21.4586 18.1412 21.2267C18.7576 20.9873 19.2799 20.6662 19.8007 20.1447C20.3223 19.6236 20.6425 19.1006 20.8828 18.4842C21.1133 17.8878 21.2715 17.2064 21.3184 16.2087C21.3633 15.2087 21.375 14.89 21.375 12.3438C21.375 9.79769 21.3633 9.47819 21.3184 8.47816C21.2715 7.48009 21.1133 6.79891 20.8828 6.20284C20.6425 5.58616 20.3223 5.06312 19.8007 4.54197C19.2793 4.02053 18.7578 3.70019 18.1406 3.46103C17.543 3.22909 16.8613 3.07103 15.8632 3.02538C14.8632 2.97991 14.5448 2.96875 11.9979 2.96875H12.0008ZM11.1598 4.65822C11.4095 4.65784 11.688 4.65822 12.0008 4.65822C14.5041 4.65822 14.8007 4.66722 15.7892 4.71213C16.7032 4.75394 17.1994 4.90666 17.5298 5.035C17.9674 5.20487 18.2793 5.40803 18.6072 5.73625C18.9353 6.06437 19.1384 6.37684 19.3088 6.81437C19.4371 7.14437 19.59 7.6405 19.6316 8.55456C19.6765 9.54288 19.6863 9.83969 19.6863 12.3417C19.6863 14.8437 19.6765 15.1406 19.6316 16.1288C19.5898 17.0429 19.4371 17.539 19.3088 17.8691C19.1389 18.3066 18.9353 18.6182 18.6072 18.9461C18.2791 19.2742 17.9676 19.4773 17.5298 19.6473C17.1997 19.7762 16.7032 19.9285 15.7892 19.9703C14.8009 20.0152 14.5041 20.025 12.0008 20.025C9.49753 20.025 9.20081 20.0152 8.21259 19.9703C7.29853 19.9281 6.80241 19.7754 6.47166 19.6471C6.03422 19.4771 5.72166 19.274 5.39353 18.9459C5.06541 18.6178 4.86234 18.3061 4.692 17.8683C4.56366 17.5382 4.41075 17.0421 4.36913 16.1281C4.32422 15.1397 4.31522 14.8429 4.31522 12.3393C4.31522 9.83575 4.32422 9.54053 4.36913 8.55222C4.41094 7.63816 4.56366 7.14203 4.692 6.81156C4.86197 6.37403 5.06541 6.06156 5.39363 5.73344C5.72184 5.40531 6.03422 5.20216 6.47175 5.03191C6.80222 4.903 7.29853 4.75066 8.21259 4.70866C9.07744 4.66956 9.41259 4.65784 11.1598 4.65587V4.65822ZM17.0052 6.21484C16.3841 6.21484 15.8802 6.71828 15.8802 7.33947C15.8802 7.96056 16.3841 8.46447 17.0052 8.46447C17.6263 8.46447 18.1302 7.96056 18.1302 7.33947C18.1302 6.71838 17.6263 6.21447 17.0052 6.21447V6.21484ZM12.0008 7.52931C9.34209 7.52931 7.18641 9.685 7.18641 12.3438C7.18641 15.0027 9.34209 17.1573 12.0008 17.1573C14.6597 17.1573 16.8146 15.0027 16.8146 12.3438C16.8146 9.68509 14.6595 7.52931 12.0007 7.52931H12.0008ZM12.0008 9.21878C13.7267 9.21878 15.1259 10.6178 15.1259 12.3438C15.1259 14.0697 13.7267 15.4689 12.0008 15.4689C10.275 15.4689 8.87588 14.0697 8.87588 12.3438C8.87588 10.6178 10.2749 9.21878 12.0008 9.21878Z" fill="white"/>
</g>
<defs>
<radialGradient id="paint0_radial_24790_21126" cx="0" cy="0" r="1" gradientUnits="userSpaceOnUse" gradientTransform="translate(6.375 26.1922) rotate(-90) scale(23.7858 22.1227)">
<stop stop-color="#FFDD55"/>
<stop offset="0.1" stop-color="#FFDD55"/>
<stop offset="0.5" stop-color="#FF543E"/>
<stop offset="1" stop-color="#C837AB"/>
</radialGradient>
<radialGradient id="paint1_radial_24790_21126" cx="0" cy="0" r="1" gradientUnits="userSpaceOnUse" gradientTransform="translate(-4.02009 2.07259) rotate(78.681) scale(10.6324 43.827)">
<stop stop-color="#3771C8"/>
<stop offset="0.128" stop-color="#3771C8"/>
<stop offset="1" stop-color="#6600FF" stop-opacity="0"/>
</radialGradient>
<clipPath id="clip0_24790_21126">
<rect width="24" height="24" fill="white" transform="translate(0 0.34375)"/>
</clipPath>
</defs>
</svg>
