<svg width="166" height="42" viewBox="0 0 166 42" fill="none" xmlns="http://www.w3.org/2000/svg">
<path d="M122.243 14.0674V21.8667C122.244 22.5421 122.112 23.2111 121.855 23.8356C121.597 24.46 121.22 25.0276 120.743 25.506C120.266 25.9844 119.7 26.3641 119.076 26.6236C118.452 26.8831 117.784 27.0172 117.108 27.0183H103.834V33.0607H100.55V17.3513H94.5857C94.0943 17.3524 93.6235 17.5483 93.2764 17.8962C92.9294 18.244 92.7345 18.7153 92.7345 19.2067V23.7221H98.6535V27.006H89.4507V19.219C89.4518 17.857 89.993 16.5511 90.9556 15.5876C91.9183 14.6242 93.2238 14.0819 94.5857 14.0797H103.842V17.3636V23.7344H117.117C117.608 23.7322 118.078 23.5359 118.425 23.1883C118.771 22.8407 118.967 22.37 118.968 21.879V17.3636H107.306V14.0797L122.243 14.0674Z" fill="#424242"/>
<path d="M67.4529 14.0522V22.1348C67.4529 22.6258 67.2579 23.0966 66.9107 23.4438C66.5635 23.791 66.0927 23.9861 65.6017 23.9861H62.01V17.3567V14.0728H52.7621C52.0867 14.0738 51.4181 14.208 50.7945 14.4674C50.1709 14.7269 49.6045 15.1067 49.1277 15.585C48.6509 16.0634 48.2729 16.631 48.0154 17.2555C47.758 17.8799 47.626 18.549 47.6271 19.2244V27.0237H56.8299V23.7398H50.9109V19.2244C50.9119 18.7334 51.1072 18.2627 51.454 17.9151C51.8008 17.5675 52.2711 17.3712 52.7621 17.369H58.7263V33.0825H62.01V27.27H65.6017C66.9632 27.2689 68.2687 26.7275 69.2315 25.7647C70.1942 24.8019 70.7356 23.4964 70.7367 22.1348V14.0522H67.4529Z" fill="#424242"/>
<path d="M38.3281 27.2673H38.1146C38.1857 27.2715 38.257 27.2715 38.3281 27.2673Z" fill="#424242"/>
<path d="M33.1903 22.1348C33.1903 22.2169 33.1903 22.299 33.1903 22.3811C33.1965 22.2991 33.1965 22.2167 33.1903 22.1348Z" fill="#424242"/>
<path d="M40.3255 27.2593H40.1202C40.1886 27.2632 40.2571 27.2632 40.3255 27.2593Z" fill="#424242"/>
<path d="M29.5737 27.2673H29.3644C29.4341 27.2714 29.504 27.2714 29.5737 27.2673Z" fill="#424242"/>
<path d="M36.4787 22.1348C36.4726 22.2167 36.4726 22.2991 36.4787 22.3811C36.4787 22.299 36.4787 22.2169 36.4787 22.1348Z" fill="#424242"/>
<path d="M24.4314 14.0522V22.1348C24.4314 22.2333 24.4314 22.3277 24.4314 22.4221C24.448 22.3272 24.4563 22.2311 24.456 22.1348V14.0522H24.4314Z" fill="#424242"/>
<path d="M31.5748 27.2593H31.3613C31.4324 27.2635 31.5037 27.2635 31.5748 27.2593Z" fill="#424242"/>
<path d="M20.8351 27.2673H20.6257C20.6955 27.2714 20.7654 27.2714 20.8351 27.2673Z" fill="#424242"/>
<path d="M27.7239 14.0522V22.1348C27.7236 22.2311 27.7319 22.3272 27.7485 22.4221C27.7485 22.3277 27.7485 22.2333 27.7485 22.1348V14.0522H27.7239Z" fill="#424242"/>
<path d="M41.972 14.0522V22.1348C41.972 22.625 41.7775 23.0953 41.4312 23.4424C41.085 23.7894 40.6151 23.985 40.1249 23.9861H38.3352C37.8864 23.9862 37.4528 23.8236 37.1147 23.5285C36.7766 23.2334 36.5569 22.8258 36.4963 22.3811C36.4901 22.2991 36.4901 22.2167 36.4963 22.1348V14.0522H33.2372V22.1348C33.2433 22.2167 33.2433 22.2991 33.2372 22.3811C33.1766 22.8258 32.9569 23.2334 32.6188 23.5285C32.2807 23.8236 31.847 23.9862 31.3982 23.9861H29.6086C29.1678 23.9855 28.7416 23.8277 28.4068 23.541C28.0719 23.2543 27.8504 22.8576 27.782 22.4221C27.7654 22.3272 27.7571 22.2311 27.7573 22.1348V14.0522H24.5064V22.1348C24.5066 22.2311 24.4984 22.3272 24.4818 22.4221C24.4142 22.8579 24.1928 23.2552 23.8578 23.542C23.5228 23.8289 23.0962 23.9864 22.6552 23.9861H20.8327C20.3417 23.9861 19.8708 23.791 19.5237 23.4438C19.1765 23.0966 18.9814 22.6258 18.9814 22.1348V14.0522H15.6977V28.3537C15.6966 28.7699 15.5305 29.1687 15.2358 29.4627C14.941 29.7566 14.5418 29.9217 14.1256 29.9217H5.6452C5.22896 29.9217 4.8297 29.7566 4.53499 29.4627C4.24028 29.1687 4.07417 28.7699 4.07309 28.3537V14.0522H0.789307V28.3537C0.79148 29.6405 1.30391 30.874 2.21421 31.7836C3.12451 32.6931 4.35838 33.2045 5.6452 33.2056H14.1091C15.396 33.2045 16.6298 32.6931 17.5401 31.7836C18.4504 30.874 18.9629 29.6405 18.965 28.3537V26.921C19.4894 27.1256 20.0444 27.2407 20.6069 27.2618C20.6766 27.2658 20.7465 27.2658 20.8163 27.2618H22.6059C22.6756 27.2658 22.7455 27.2658 22.8153 27.2618C24.0369 27.2222 25.203 26.7426 26.099 25.9112C26.995 26.7426 28.1612 27.2222 29.3828 27.2618C29.4525 27.2658 29.5224 27.2658 29.5922 27.2618H31.3818C31.4529 27.2659 31.5242 27.2659 31.5953 27.2618C32.8175 27.2177 33.983 26.7355 34.879 25.903C35.775 26.7355 36.9406 27.2177 38.1628 27.2618C38.2339 27.2659 38.3052 27.2659 38.3763 27.2618H40.1249C40.1946 27.2658 40.2645 27.2658 40.3342 27.2618C41.6584 27.2087 42.9108 26.6454 43.8289 25.6897C44.7471 24.734 45.2599 23.4601 45.2599 22.1348V14.0522H41.972Z" fill="#424242"/>
<path d="M22.8321 27.2593H22.6228C22.6925 27.2634 22.7624 27.2634 22.8321 27.2593Z" fill="#424242"/>
<path d="M87.1544 19.2255V27.0248H73.6951V23.7409H83.8707V19.2255C83.8707 18.7341 83.6758 18.2628 83.3287 17.915C82.9817 17.5671 82.5108 17.3712 82.0194 17.3701H73.7156V14.0862H82.0194C83.3814 14.0884 84.6869 14.6306 85.6495 15.5941C86.6121 16.5576 87.1534 17.8635 87.1544 19.2255Z" fill="#424242"/>
<path d="M115.284 8.73511H112V12.019H115.284V8.73511Z" fill="#424242"/>
<path d="M70.7415 8.73511H67.4578V12.019H70.7415V8.73511Z" fill="#424242"/>
<path d="M43.0235 29.981H36.1727V33.2649H43.0235V29.981Z" fill="#424242"/>
<path d="M142.933 11.6465V13.1006C142.63 13.2805 142.336 13.4689 142.05 13.6699V12.1545C142.336 11.9753 142.631 11.8059 142.933 11.6465Z" fill="#424242"/>
<path d="M158.684 12.3271V6.18905L157.414 4.81116L155.01 2.20989L153.841 0.939941H143.301C142.971 0.940502 142.654 1.07209 142.421 1.30583C142.188 1.53956 142.057 1.85633 142.057 2.1866V12.1599C142.339 11.9807 142.633 11.8114 142.939 11.6519V13.106C142.637 13.2859 142.342 13.4743 142.057 13.6754V16.8926L147.071 23.5005C147.068 23.5086 147.064 23.516 147.058 23.5217V23.545C147.058 23.6021 146.99 24.7705 147.511 25.488C147.579 25.5832 147.658 25.6693 147.748 25.7441C147.682 25.9668 147.603 26.1852 147.511 26.3981C147.421 26.61 147.317 26.8158 147.2 27.014C146.959 27.4211 146.668 27.7965 146.334 28.1316C146.01 28.4431 145.634 28.6959 145.223 28.8787C145.119 28.9232 145.011 28.9655 144.895 29.0057C144.786 29.0573 144.7 29.1469 144.654 29.2576C144.588 29.4593 144.603 29.6786 144.696 29.8693C144.707 29.9024 144.72 29.9349 144.734 29.9667C145.401 31.6218 147.57 36.9048 149.196 39.777C149.333 40.0246 149.471 40.2553 149.602 40.4627C149.61 40.4833 149.62 40.5031 149.632 40.522C149.698 40.6387 149.78 40.7462 149.875 40.8416L149.966 40.922C149.993 40.9421 150.021 40.9598 150.051 40.975C150.072 40.9888 150.095 41.0001 150.118 41.0088L150.186 41.0321H150.211C150.238 41.0343 150.264 41.0343 150.29 41.0321H150.315C150.645 41.0109 150.885 40.6596 150.971 40.5051L151.001 40.4458C151.132 40.2342 151.268 40.0077 151.407 39.76C153.029 36.8857 155.192 31.6133 155.863 29.9603C155.873 29.927 155.886 29.8945 155.901 29.8629C155.947 29.7687 155.975 29.6661 155.982 29.5611C155.989 29.4561 155.975 29.3508 155.941 29.2512C155.895 29.1406 155.81 29.0509 155.702 28.9994C155.583 28.9592 155.477 28.9168 155.372 28.8724C154.962 28.6879 154.587 28.4353 154.262 28.1252C153.927 27.7917 153.637 27.4161 153.399 27.0077C153.28 26.8095 153.175 26.6037 153.084 26.3918C152.991 26.1795 152.913 25.961 152.851 25.7377C152.938 25.6618 153.016 25.5758 153.084 25.4816C153.532 24.8657 153.551 23.9154 153.543 23.6254L158.671 16.8629V13.8659C158.436 13.6944 158.197 13.5293 157.954 13.3727V11.8911C158.21 12.0287 158.449 12.1726 158.684 12.3271ZM150.739 31.9139L150.683 31.9478L150.624 31.9774C150.606 31.988 150.587 31.9965 150.567 32.0028C150.546 32.0028 150.527 32.0176 150.506 32.0219C150.489 32.0283 150.471 32.0326 150.453 32.0345C150.404 32.0456 150.354 32.0513 150.305 32.0515H150.288C150.236 32.0511 150.185 32.0454 150.135 32.0345L150.085 32.0219L150.025 32.0028C150.004 31.9965 149.983 31.988 149.964 31.9774L149.909 31.9478C149.89 31.9377 149.871 31.9264 149.854 31.9139C149.812 31.8863 149.773 31.8544 149.737 31.8187C149.668 31.748 149.613 31.6646 149.574 31.5731C149.554 31.526 149.538 31.4772 149.526 31.4271C149.518 31.3752 149.514 31.3229 149.513 31.2705C149.513 31.2429 149.513 31.2175 149.513 31.19C149.512 31.1788 149.512 31.1674 149.513 31.1562C149.514 31.1345 149.519 31.1131 149.526 31.0927C149.529 31.0738 149.534 31.0554 149.541 31.0376C149.558 30.9791 149.582 30.923 149.613 30.8704C149.623 30.8523 149.635 30.8353 149.649 30.8196C149.694 30.7511 149.753 30.6916 149.82 30.644C149.833 30.6315 149.848 30.6208 149.864 30.6122C149.916 30.5774 149.972 30.5503 150.032 30.5318C150.05 30.5242 150.069 30.5178 150.089 30.5127C150.11 30.5073 150.131 30.503 150.152 30.5C150.173 30.4978 150.195 30.4978 150.216 30.5H150.279H150.315H150.379C150.4 30.4981 150.421 30.4981 150.442 30.5C150.462 30.5028 150.482 30.5071 150.501 30.5127L150.563 30.5318C150.592 30.5405 150.62 30.5518 150.647 30.5656L150.728 30.6122L150.766 30.6397C150.795 30.6594 150.821 30.6821 150.844 30.7075C150.844 30.7075 150.844 30.7075 150.857 30.7075C150.885 30.7353 150.909 30.7658 150.931 30.7985C150.943 30.8143 150.954 30.8313 150.963 30.8493C150.979 30.8745 150.993 30.9015 151.003 30.9297C151.017 30.9577 151.029 30.9867 151.039 31.0165C151.039 31.0355 151.039 31.0525 151.054 31.0715C151.059 31.091 151.063 31.1108 151.067 31.1308C151.068 31.142 151.068 31.1534 151.067 31.1646C151.067 31.1921 151.067 31.2175 151.067 31.2451C151.066 31.2977 151.061 31.3502 151.05 31.4017C151.039 31.4516 151.024 31.5005 151.005 31.5477C150.967 31.6403 150.91 31.7239 150.838 31.7933C150.811 31.8381 150.777 31.8787 150.739 31.9139ZM154.605 29.8608H154.618C153.162 33.4463 151.367 37.1482 150.914 38.0752V32.9955C151.272 32.8684 151.581 32.6337 151.8 32.3238C152.019 32.0138 152.137 31.6437 152.138 31.2641C152.138 31.2154 152.138 31.1689 152.138 31.1223C152.138 31.0757 152.127 31.0292 152.123 30.9847C152.118 30.9403 152.102 30.881 152.093 30.8323C152.085 30.7836 152.072 30.754 152.059 30.718C152.044 30.6792 152.027 30.641 152.008 30.6037C151.994 30.5635 151.972 30.5212 151.955 30.481C151.939 30.4408 151.915 30.4027 151.892 30.3624C151.869 30.3222 151.848 30.2863 151.822 30.2503C151.797 30.2143 151.754 30.155 151.718 30.1106C151.689 30.0725 151.653 30.0344 151.621 29.9984L151.606 29.9836C151.574 29.9516 151.54 29.9212 151.505 29.8926L151.475 29.8651C151.439 29.8354 151.401 29.8058 151.363 29.7804C151.319 29.7478 151.273 29.7181 151.225 29.6915C151.177 29.6629 151.128 29.6368 151.077 29.6132C151.031 29.592 150.986 29.573 150.937 29.556L150.91 29.5455C150.807 29.5099 150.7 29.4837 150.592 29.4671C150.536 29.4576 150.48 29.4512 150.423 29.4481H150.322H150.288H150.182C150.127 29.4514 150.071 29.4578 150.017 29.4671C149.909 29.4827 149.802 29.509 149.699 29.5455L149.668 29.556C149.623 29.573 149.574 29.592 149.532 29.6132C149.481 29.6359 149.431 29.6621 149.384 29.6915C149.336 29.7186 149.289 29.7483 149.244 29.7804C149.206 29.8062 149.169 29.8345 149.134 29.8651L149.1 29.8926C149.066 29.9212 149.034 29.9516 149.003 29.9836L148.988 29.9984C148.952 30.0344 148.92 30.0725 148.887 30.1106C148.848 30.1543 148.814 30.201 148.783 30.2503C148.757 30.2859 148.734 30.3234 148.713 30.3624C148.689 30.4003 148.668 30.44 148.65 30.481C148.629 30.5205 148.611 30.5616 148.597 30.6037C148.58 30.6461 148.563 30.6884 148.548 30.7329C148.533 30.7773 148.529 30.8069 148.518 30.8471C148.508 30.8874 148.495 30.9466 148.489 30.9995C148.48 31.045 148.476 31.091 148.474 31.1371C148.471 31.1843 148.471 31.2317 148.474 31.2789C148.474 31.6579 148.591 32.0275 148.81 32.3374C149.028 32.6472 149.336 32.8822 149.693 33.0103V38.0901C149.24 37.163 147.449 33.4611 145.993 29.8756C147.005 29.331 147.824 28.4886 148.341 27.4627C148.344 27.4532 148.348 27.444 148.353 27.4352C148.445 27.2464 148.526 27.0529 148.597 26.8553C148.67 26.6601 148.731 26.4608 148.781 26.2584C148.782 26.255 148.782 26.2513 148.781 26.2478L148.817 26.2584L148.861 26.2711H148.872H148.889H148.908L149.157 26.3261H149.181H149.225H149.257H149.28H149.308H149.331H149.346C149.411 26.3261 149.477 26.3473 149.557 26.3558L149.67 26.3706H149.706H149.72L149.864 26.3812C149.943 26.3812 150.021 26.3939 150.104 26.396C150.186 26.3981 150.218 26.396 150.275 26.396H150.334H150.468H150.616H150.628L150.791 26.3833L150.937 26.3685L151.149 26.341L151.255 26.324H151.272H151.291H151.323H151.344H151.373H151.418H151.441L151.691 26.269H151.71H151.723H151.735L151.784 26.2563L151.816 26.2457C151.816 26.2492 151.816 26.2528 151.816 26.2563C151.864 26.4586 151.924 26.6579 151.996 26.8532C152.064 27.0514 152.146 27.2451 152.239 27.4331C152.242 27.4427 152.247 27.4519 152.252 27.4606C152.774 28.4838 153.597 29.3218 154.612 29.8608H154.605ZM150.288 24.1461H150.315C150.995 24.1448 151.672 24.0824 152.341 23.9598H152.36C152.379 24.1592 152.342 24.3599 152.254 24.5398C152.203 24.6379 152.136 24.7272 152.057 24.8043C152.036 24.8234 152.019 24.8424 151.998 24.8594L151.983 24.8699C151.961 24.8896 151.936 24.9073 151.911 24.9229C151.779 25.014 151.631 25.0794 151.475 25.1155H151.462H151.422L151.346 25.1366H151.335H151.31H151.295H151.282H151.27L151.215 25.1493L151.083 25.1768C151.014 25.1895 150.933 25.2001 150.842 25.2107L150.7 25.2255H150.66H150.647C150.603 25.2255 150.529 25.2255 150.436 25.2255H150.199H150.051H149.977C149.835 25.216 149.693 25.1991 149.553 25.1747L149.422 25.1472L149.363 25.1345H149.346H149.331H149.306C149.28 25.1293 149.254 25.1223 149.229 25.1133H149.189H149.177C149.02 25.0777 148.872 25.0123 148.741 24.9207C148.708 24.9016 148.678 24.8796 148.65 24.8551C148.633 24.8382 148.611 24.8213 148.594 24.8022C148.513 24.7267 148.447 24.6371 148.398 24.5376C148.308 24.3582 148.271 24.1571 148.292 23.9577H148.307C148.962 24.0769 149.627 24.1385 150.294 24.1418L150.288 24.1461ZM157.408 16.465L152.8 22.5375V22.5269H152.77C152.169 22.6941 151.094 22.7491 150.501 22.7682C150.41 22.7682 150.343 22.7682 150.315 22.7682V22.8169H150.294V22.7724C150.262 22.7724 150.197 22.7724 150.104 22.7724C149.375 22.7644 148.648 22.6936 147.932 22.5608L143.331 16.4798V2.212H152.883V6.60813C152.882 6.67974 152.896 6.7507 152.923 6.81694C152.951 6.88318 152.991 6.9434 153.041 6.99414C153.092 7.04487 153.152 7.08513 153.218 7.1126C153.284 7.14006 153.355 7.15421 153.426 7.15421H157.418L157.408 16.465Z" fill="#424242"/>
<path d="M152.25 24.5298C152.199 24.6279 152.132 24.7172 152.053 24.7944C152.032 24.8134 152.015 24.8325 151.994 24.8494L151.979 24.86C151.956 24.8796 151.932 24.8973 151.907 24.9129C151.775 25.0041 151.627 25.0694 151.471 25.1055H151.458H151.418L151.342 25.1267H151.331H151.306H151.291H151.278H151.265L151.21 25.1394L151.079 25.1669C151.009 25.1796 150.929 25.1902 150.838 25.2008L150.696 25.2156H150.656H150.643C150.599 25.2156 150.525 25.2156 150.432 25.2156H150.195H150.046H149.972C149.83 25.2061 149.689 25.1891 149.549 25.1648L149.418 25.1373L149.359 25.1246H149.342H149.327H149.301C149.276 25.1194 149.25 25.1123 149.225 25.1034H149.185H149.172C149.016 25.0678 148.868 25.0024 148.736 24.9108C148.704 24.8917 148.674 24.8697 148.645 24.8452C148.628 24.8282 148.607 24.8113 148.59 24.7923C148.509 24.7168 148.442 24.6271 148.393 24.5277C148.304 24.3483 148.267 24.1472 148.288 23.9478H148.302C148.972 24.0702 149.651 24.1325 150.332 24.134H150.315C150.995 24.1327 151.672 24.0704 152.341 23.9478H152.36C152.378 24.1482 152.339 24.3497 152.25 24.5298Z" fill="white"/>
<path d="M151.085 31.264C151.085 31.3167 151.079 31.3692 151.068 31.4207C151.058 31.4706 151.043 31.5195 151.024 31.5667C150.985 31.6592 150.929 31.7428 150.856 31.8122C150.824 31.8489 150.786 31.8809 150.744 31.9075L150.689 31.9413L150.63 31.971C150.612 31.9815 150.593 31.9901 150.573 31.9964C150.552 31.9964 150.533 32.0112 150.511 32.0154C150.494 32.0219 150.477 32.0262 150.459 32.0281C150.41 32.0392 150.36 32.0449 150.31 32.045H150.293C150.242 32.0446 150.191 32.039 150.141 32.0281L150.09 32.0154L150.031 31.9964C150.01 31.9901 149.989 31.9816 149.97 31.971L149.915 31.9413C149.896 31.9313 149.877 31.92 149.86 31.9075C149.818 31.8799 149.779 31.848 149.743 31.8122C149.674 31.7415 149.618 31.6582 149.58 31.5667C149.56 31.5196 149.543 31.4707 149.532 31.4207C149.524 31.3688 149.52 31.3164 149.519 31.264C149.519 31.2365 149.519 31.2111 149.519 31.1836C149.518 31.1723 149.518 31.161 149.519 31.1497C149.52 31.1281 149.524 31.1067 149.532 31.0862C149.534 31.0674 149.539 31.049 149.546 31.0312C149.563 30.9727 149.588 30.9165 149.618 30.864C149.629 30.8459 149.641 30.8289 149.654 30.8132C149.7 30.7447 149.758 30.6851 149.826 30.6375C149.839 30.6251 149.854 30.6144 149.87 30.6058C149.922 30.5709 149.978 30.5438 150.037 30.5253C150.056 30.5177 150.075 30.5114 150.095 30.5063C150.115 30.5008 150.137 30.4966 150.158 30.4936C150.179 30.4914 150.2 30.4914 150.221 30.4936H150.285H150.315H150.378C150.399 30.4917 150.42 30.4917 150.442 30.4936C150.462 30.4964 150.481 30.5006 150.501 30.5063L150.562 30.5253C150.591 30.534 150.62 30.5454 150.647 30.5592L150.727 30.6058L150.765 30.6333C150.794 30.6529 150.82 30.6756 150.844 30.701C150.844 30.701 150.844 30.701 150.856 30.701C150.884 30.7289 150.909 30.7594 150.931 30.792C150.943 30.8078 150.953 30.8249 150.962 30.8428C150.979 30.8681 150.992 30.895 151.002 30.9233C151.017 30.9513 151.029 30.9803 151.038 31.01C151.038 31.0291 151.038 31.046 151.053 31.0651C151.059 31.0846 151.063 31.1044 151.066 31.1243C151.067 31.1356 151.067 31.1469 151.066 31.1582C151.081 31.2111 151.085 31.2323 151.085 31.264Z" fill="white"/>
<path d="M152.145 31.2667C152.145 31.218 152.145 31.1714 152.145 31.1249C152.145 31.0783 152.134 31.0317 152.13 30.9873C152.126 30.9429 152.109 30.8836 152.1 30.8349C152.092 30.7862 152.079 30.7566 152.066 30.7206C152.049 30.6795 152.03 30.6392 152.009 30.6C151.994 30.5598 151.973 30.5174 151.956 30.4772C151.939 30.437 151.916 30.3989 151.893 30.3587C151.87 30.3185 151.848 30.2825 151.823 30.2465C151.798 30.2105 151.755 30.1513 151.719 30.1068C151.69 30.0687 151.654 30.0306 151.622 29.9946L151.607 29.9798C151.575 29.9478 151.541 29.9174 151.505 29.8888L151.476 29.8613C151.44 29.8317 151.402 29.802 151.364 29.7766C151.32 29.7441 151.274 29.7144 151.226 29.6877C151.178 29.6592 151.129 29.633 151.078 29.6094C151.031 29.5882 150.987 29.5692 150.938 29.5523L150.911 29.5417C150.807 29.5062 150.701 29.48 150.593 29.4634C150.537 29.4538 150.481 29.4474 150.424 29.4443H150.322H150.289H150.183C150.127 29.4477 150.072 29.454 150.018 29.4634C149.909 29.479 149.803 29.5052 149.7 29.5417L149.668 29.5523C149.624 29.5692 149.575 29.5882 149.533 29.6094C149.482 29.6321 149.432 29.6583 149.385 29.6877C149.337 29.7149 149.29 29.7445 149.245 29.7766C149.207 29.8025 149.17 29.8307 149.135 29.8613L149.101 29.8888C149.067 29.9175 149.035 29.9478 149.004 29.9798L148.989 29.9946C148.953 30.0306 148.921 30.0687 148.887 30.1068C148.849 30.1505 148.814 30.1972 148.784 30.2465C148.758 30.2821 148.734 30.3196 148.714 30.3587C148.69 30.3966 148.669 30.4362 148.65 30.4772C148.63 30.5168 148.612 30.5578 148.597 30.6C148.58 30.6423 148.564 30.6846 148.549 30.7291C148.534 30.7735 148.53 30.8032 148.519 30.8434C148.509 30.8836 148.496 30.9429 148.489 30.9958C148.481 31.0412 148.476 31.0872 148.475 31.1333C148.471 31.1806 148.471 31.2279 148.475 31.2752C148.475 31.6541 148.592 32.0238 148.81 32.3336C149.029 32.6435 149.337 32.8784 149.694 33.0065V38.0863C149.241 37.1592 147.45 33.4573 145.994 29.8719C147.005 29.3272 147.825 28.4849 148.341 27.459C148.345 27.4494 148.349 27.4402 148.354 27.4315C148.446 27.2427 148.527 27.0491 148.597 26.8515C148.67 26.6563 148.732 26.457 148.782 26.2546C148.783 26.2512 148.783 26.2475 148.782 26.2441L148.818 26.2546L148.862 26.2673H148.873H148.89H148.909L149.158 26.3224H149.182H149.226H149.258H149.281H149.309H149.332H149.347C149.412 26.3224 149.478 26.3435 149.558 26.352L149.67 26.3668H149.706H149.721L149.865 26.3774C149.944 26.3774 150.022 26.3901 150.104 26.3922C150.187 26.3943 150.219 26.3922 150.276 26.3922H150.335H150.468H150.617H150.629L150.792 26.3795L150.938 26.3647L151.15 26.3372L151.256 26.3203H151.273H151.292H151.323H151.345H151.374H151.419H151.442L151.692 26.2652H151.711H151.723H151.736L151.785 26.2525L151.817 26.2419C151.817 26.2454 151.817 26.249 151.817 26.2525C151.865 26.4548 151.925 26.6541 151.997 26.8494C152.065 27.0477 152.147 27.2414 152.24 27.4293C152.243 27.4389 152.248 27.4481 152.253 27.4569C152.768 28.4823 153.586 29.3246 154.596 29.8697H154.608C153.152 33.4552 151.357 37.1571 150.904 38.0842V33.0044C151.266 32.8798 151.58 32.6454 151.802 32.3339C152.025 32.0224 152.144 31.6494 152.145 31.2667Z" fill="white"/>
<path d="M157.416 7.15631V16.4692L152.809 22.5417V22.5311H152.779C152.178 22.6983 151.103 22.7533 150.51 22.7724C150.419 22.7724 150.352 22.7724 150.324 22.7724V22.8211H150.303V22.7745C150.271 22.7745 150.206 22.7745 150.112 22.7745C149.384 22.7665 148.657 22.6957 147.941 22.5629L143.333 16.4819V2.21411H152.885V6.61024C152.885 6.68185 152.899 6.75281 152.926 6.81905C152.953 6.88529 152.993 6.94551 153.044 6.99624C153.094 7.04698 153.154 7.08723 153.22 7.1147C153.286 7.14217 153.357 7.15631 153.429 7.15631H157.416Z" fill="white"/>
<path d="M158.682 12.3213V13.86C158.449 13.6886 158.21 13.5235 157.965 13.3669V11.8853C158.208 12.0228 158.447 12.1668 158.682 12.3213Z" fill="#424242"/>
<path d="M149.355 41.0542C149.089 41.0372 148.826 41.014 148.564 40.9843C145.337 40.6097 142.308 39.2386 139.897 37.0619C137.486 34.8851 135.813 32.0109 135.112 28.8392C134.411 25.6675 134.715 22.3561 135.984 19.3657C137.252 16.3753 139.421 13.8546 142.189 12.1545C142.471 11.9753 142.765 11.8059 143.071 11.6465V13.1006C142.769 13.2805 142.475 13.4689 142.189 13.6699C139.858 15.2857 138.058 17.556 137.016 20.194C135.974 22.832 135.738 25.7196 136.336 28.4921C136.934 31.2646 138.34 33.7978 140.376 35.7717C142.413 37.7457 144.989 39.072 147.778 39.5832C148.037 39.6318 148.299 39.6721 148.562 39.7038C148.773 40.0996 148.985 40.4594 149.18 40.7727C149.18 40.7875 149.218 40.8446 149.218 40.8446C149.26 40.9187 149.309 40.9886 149.355 41.0542Z" fill="#424242"/>
<path d="M166 25.4735C165.994 29.2753 164.605 32.945 162.093 35.7984C159.581 38.6518 156.117 40.4941 152.347 40.9816C152.084 41.0134 151.818 41.0409 151.549 41.0599C151.601 40.9886 151.649 40.9144 151.693 40.8377L151.71 40.8017C151.921 40.48 152.133 40.1075 152.345 39.6969C152.609 39.663 152.872 39.6186 153.132 39.5678C155.874 39.0315 158.4 37.7063 160.4 35.7548C162.399 33.8034 163.786 31.3106 164.389 28.5823C164.992 25.854 164.786 23.009 163.795 20.3964C162.805 17.7837 161.073 15.5171 158.813 13.8747C158.58 13.7032 158.341 13.5381 158.095 13.3815V11.8999C158.338 12.0396 158.578 12.1835 158.813 12.338C161.015 13.7502 162.827 15.6931 164.083 17.9882C165.339 20.2833 165.998 22.8572 166 25.4735Z" fill="#424242"/>
<path d="M151.326 1.02752H150.805C150.833 1.02533 150.862 1.02533 150.891 1.02752H151.319H151.326Z" fill="white"/>
<path d="M151.836 6.41797H146.055C145.699 6.41797 145.41 6.70637 145.41 7.06214C145.41 7.4179 145.699 7.7063 146.055 7.7063H151.836C152.192 7.7063 152.481 7.4179 152.481 7.06214C152.481 6.70637 152.192 6.41797 151.836 6.41797Z" fill="#424242"/>
<path d="M156.072 9.40942H146.055C145.699 9.40942 145.41 9.69783 145.41 10.0536C145.41 10.4094 145.699 10.6978 146.055 10.6978H156.072C156.428 10.6978 156.717 10.4094 156.717 10.0536C156.717 9.69783 156.428 9.40942 156.072 9.40942Z" fill="#424242"/>
<path d="M156.072 12.4089H146.055C145.699 12.4089 145.41 12.6973 145.41 13.0531C145.41 13.4089 145.699 13.6973 146.055 13.6973H156.072C156.428 13.6973 156.717 13.4089 156.717 13.0531C156.717 12.6973 156.428 12.4089 156.072 12.4089Z" fill="#424242"/>
<path d="M156.072 15.5525H146.055C145.699 15.5525 145.41 15.8409 145.41 16.1967C145.41 16.5524 145.699 16.8408 146.055 16.8408H156.072C156.428 16.8408 156.717 16.5524 156.717 16.1967C156.717 15.8409 156.428 15.5525 156.072 15.5525Z" fill="#424242"/>
</svg>
